<svg xmlns="http://www.w3.org/2000/svg" viewBox="0 0 500 500">
    <defs>
        <style>.a{fill:#d7ebfd;}.b{fill:#0b6bb2;}</style>
    </defs>
    <rect class="a" x="-138.11" y="-18.09" width="876.26" height="659.9" />
    <path class="b" d="M250,40.62a96.51,96.51,0,1,0,96.5,96.5A96.51,96.51,0,0,0,250,40.62Z" />
    <path class="b"
        d="M419.26,391.51c-.25,9.19-5,15.12-12.05,20.71-45.14,35.84-98.76,58.58-157,58.58-57.62,0-111.92-22.23-156.43-58.12-19-15.31-13.34-36.93-7.23-57.86a130.48,130.48,0,0,1,125.44-94h76.45c66.29,0,123.78,51.9,130.06,118A103.94,103.94,0,0,1,419.26,391.51Z" />
</svg>