<svg xmlns="http://www.w3.org/2000/svg" viewBox="0 0 57.19 57.19"><defs><style>.a{fill:#00aeef;}.b{fill:#3e4244;}.c{fill:none;}</style></defs><path class="a" d="M52.67,23.14,39.6,20.2A1.19,1.19,0,0,0,38,21c-1.18,2.71-2.37,5.41-3.53,8.13a1,1,0,0,1-.9.71c-3,.34-6,.72-9,1.09-.19,0-.46,0-.55.2s.16.3.3.41q6.84,5,13.66,10a.81.81,0,0,0,1,.08c1.8-.87,3.6-1.74,5.42-2.58.4-.19.47-.38.33-.79Q43.8,35.73,43,33.13a1,1,0,0,0-.71-.69c-2-.78-4-1.59-6-2.34-.56-.21-.57-.44-.36-.91,1-2.25,2-4.51,2.95-6.78a.94.94,0,0,1,1.3-.64c.93.23,1.86.43,2.79.64l8.37,1.87c.79.18.87.36.57,1.12-.08.21-.28.43-.11.65a10.72,10.72,0,0,1,.68,1.44,1.67,1.67,0,0,0,.17-.26c.32-.73.64-1.45,1-2.18C54.11,23.92,53.87,23.42,52.67,23.14ZM36.09,34.07l4.59,2.48a5.87,5.87,0,0,1-1.62.88l-2.19,1.06c-.2.09-.4.25-.65.06L31,34.73a1.16,1.16,0,0,1,0-.18L35.62,34A.83.83,0,0,1,36.09,34.07Z"/><path class="a" d="M55.23,38.16Q53.45,32.6,51.63,27a1.22,1.22,0,0,0-1.7-.85q-3.23,1-6.44,2.07a1.24,1.24,0,0,0-.87,1.7c.21.73.46,1.46.7,2.19,1,3,1.92,6,2.89,8.95a1.23,1.23,0,0,0,1.72.93c2.17-.69,4.34-1.4,6.5-2.11a1.21,1.21,0,0,0,.89-1.28A3,3,0,0,0,55.23,38.16Zm-3.81,2.06-.92.3a.37.37,0,0,1-.53-.28c-.08-.24-.08-.48.2-.59a6.36,6.36,0,0,1,1-.32c.37-.08.44.23.54.49A.46.46,0,0,1,51.42,40.22ZM53.31,38c-1.88.6-3.76,1.2-5.64,1.83-.5.16-.61-.13-.73-.48-.89-2.79-1.79-5.58-2.68-8.38-.52-1.65-.51-1.65,1.17-2.19l4-1.3.65-.19c.45-.06.45.3.52.54q1.26,3.86,2.5,7.7c.19.6.36,1.21.58,1.79C53.8,37.72,53.67,37.89,53.31,38Z"/><path class="b" d="M18.45,23.8c-.92,0-.92,0-.87-.85A10.91,10.91,0,0,1,27.89,13c.41,0,.51.1.5.5,0,1.16,0,1.16-1.1,1.3a9.07,9.07,0,0,0-8,8.57C19.27,24.14,18.7,23.64,18.45,23.8Z"/><path class="b" d="M23.68,31.87l8.66,6.36c1.86,1.36,3.72,2.72,5.56,4.1a.78.78,0,0,0,.94.09c1.9-.93,3.81-1.83,5.73-2.72.14-.07.35-.4.54,0s-.07.43-.31.54c-2,1-4.07,1.92-6.1,2.91-.4.2-.61,0-.86-.2L26.71,34.79c-.92-.68-1.83-1.36-2.76-2A.65.65,0,0,1,23.68,31.87Z"/><path class="b" d="M30.59,38.75a15.08,15.08,0,0,1-12.26-3c-.37-.3-.57-.34-.91,0-.74.8-1.51,1.55-2.3,2.3-.31.29-.27.45,0,.71.59.57.57.59,0,1.18q-4.67,4.64-9.31,9.29c-.27.29-.43.33-.71,0-1-1-2-2.05-3.07-3.07-.23-.22-.25-.34,0-.59,3.23-3.21,6.44-6.42,9.65-9.67.33-.33.45-.14.67.08.57.57.57.57,1.14,0,.73-.73,1.45-1.46,2.2-2.18a.5.5,0,0,0,0-.67A15.64,15.64,0,1,1,40.26,13.69a14,14,0,0,1,2.84,5.93l-2.46-.55a2.09,2.09,0,0,1-1.41-1.2c-1.78-4-4.84-6.11-9.44-6.9A12.55,12.55,0,0,0,26,35.77l.66.1Z"/><rect class="c" width="57.19" height="57.19"/></svg>