<svg xmlns="http://www.w3.org/2000/svg" viewBox="0 0 68.51 59.4"><defs><style>.a{fill:#00aeef;}.b{fill:#3e4244;}</style></defs><path class="a" d="M6.66,34.62H12v7.3a16.2,16.2,0,0,1-5.13.81,6.57,6.57,0,0,1-5.1-1.95A7.92,7.92,0,0,1,0,35.24a8.74,8.74,0,0,1,.52-3.13A6.39,6.39,0,0,1,2,29.76a6.61,6.61,0,0,1,2.38-1.48,9.19,9.19,0,0,1,3.16-.51,10.9,10.9,0,0,1,4.32.87l-.83,2a8.5,8.5,0,0,0-3.53-.81,5.57,5.57,0,0,0-2.1.38,4.38,4.38,0,0,0-1.59,1.09,4.66,4.66,0,0,0-1,1.71,6.92,6.92,0,0,0-.35,2.26A5.93,5.93,0,0,0,3.7,39.31a4.42,4.42,0,0,0,3.51,1.37,9.66,9.66,0,0,0,1.2-.07,12.55,12.55,0,0,0,1.27-.22V36.66h-3Z"/><path class="a" d="M20.06,42.73a6.26,6.26,0,0,1-2.28-.39,4.48,4.48,0,0,1-1.72-1.11A5.13,5.13,0,0,1,15,39.45a7,7,0,0,1-.37-2.36A7.8,7.8,0,0,1,15,34.68a5,5,0,0,1,1-1.82,4.2,4.2,0,0,1,1.58-1.14,5.29,5.29,0,0,1,2.11-.4,4.51,4.51,0,0,1,3.44,1.32,5.05,5.05,0,0,1,1.26,3.64v1.25H17A3.59,3.59,0,0,0,17.87,40a3,3,0,0,0,2.3.86A8.71,8.71,0,0,0,22,40.67a9.49,9.49,0,0,0,1.8-.6V42a7.62,7.62,0,0,1-1.72.59A9.86,9.86,0,0,1,20.06,42.73Zm-.42-9.62a2.37,2.37,0,0,0-1.79.7,3.27,3.27,0,0,0-.79,2.07h5a3.07,3.07,0,0,0-.64-2.07A2.21,2.21,0,0,0,19.64,33.11Z"/><path class="a" d="M30.7,42.73a3.83,3.83,0,0,1-3.21-1.49,6.71,6.71,0,0,1-1.15-4.19,6.73,6.73,0,0,1,1.17-4.24,3.89,3.89,0,0,1,3.23-1.49,3.77,3.77,0,0,1,3.3,1.6h.11c-.06-.4-.1-.75-.12-1.06s0-.57,0-.81v-4h2.34V42.51H34.51l-.43-1.44H34A3.75,3.75,0,0,1,30.7,42.73Zm.62-1.9A2.54,2.54,0,0,0,33.44,40a4.24,4.24,0,0,0,.64-2.62v-.32a5,5,0,0,0-.67-3,2.49,2.49,0,0,0-2.11-.87,2.13,2.13,0,0,0-1.9,1,5.09,5.09,0,0,0-.66,2.85,5.14,5.14,0,0,0,.64,2.82A2.18,2.18,0,0,0,31.32,40.83Z"/><path class="a" d="M49,31.51v1.3l-1.88.34a3.54,3.54,0,0,1,.42.85,3.55,3.55,0,0,1-1,3.75,4.9,4.9,0,0,1-3.23,1,4.11,4.11,0,0,1-1-.09,1.38,1.38,0,0,0-.77,1.11.61.61,0,0,0,.35.55,3,3,0,0,0,1.31.19h1.92a4.23,4.23,0,0,1,2.75.78,2.73,2.73,0,0,1,.95,2.24,3.28,3.28,0,0,1-1.52,2.89,8.13,8.13,0,0,1-4.46,1,6.18,6.18,0,0,1-3.44-.8,2.59,2.59,0,0,1-1.18-2.27,2.45,2.45,0,0,1,.64-1.71,3.36,3.36,0,0,1,1.79-1,1.79,1.79,0,0,1-.77-.65,1.64,1.64,0,0,1,0-2,3.62,3.62,0,0,1,1-.85A3.11,3.11,0,0,1,39.59,37a3.92,3.92,0,0,1,.59-4.71,4.75,4.75,0,0,1,3.22-1,6.42,6.42,0,0,1,1,.07q.5.06.78.12ZM40.32,44.22A1.29,1.29,0,0,0,41,45.39a3.75,3.75,0,0,0,1.91.4,5.78,5.78,0,0,0,2.87-.55,1.66,1.66,0,0,0,.92-1.45,1.08,1.08,0,0,0-.52-1,4,4,0,0,0-1.9-.31H42.49a2.52,2.52,0,0,0-1.58.47A1.55,1.55,0,0,0,40.32,44.22Zm1-9.13a1.85,1.85,0,0,0,2.06,2.13c1.35,0,2-.72,2-2.15a2.45,2.45,0,0,0-.5-1.67,1.89,1.89,0,0,0-1.52-.59,2,2,0,0,0-1.54.59A2.44,2.44,0,0,0,41.32,35.09Z"/><path class="a" d="M55.79,42.73a6.28,6.28,0,0,1-2.29-.39,4.45,4.45,0,0,1-1.71-1.11,5,5,0,0,1-1.08-1.78,7,7,0,0,1-.37-2.36,7.8,7.8,0,0,1,.34-2.41,5.32,5.32,0,0,1,1-1.82,4.2,4.2,0,0,1,1.58-1.14,5.29,5.29,0,0,1,2.11-.4,4.54,4.54,0,0,1,3.45,1.32,5.09,5.09,0,0,1,1.25,3.64v1.25H52.74A3.64,3.64,0,0,0,53.59,40a3,3,0,0,0,2.3.86,8.71,8.71,0,0,0,1.82-.18,9.49,9.49,0,0,0,1.8-.6V42a7.72,7.72,0,0,1-1.71.59A10,10,0,0,1,55.79,42.73Zm-.43-9.62a2.38,2.38,0,0,0-1.79.7,3.26,3.26,0,0,0-.78,2.07h5a3.18,3.18,0,0,0-.64-2.07A2.22,2.22,0,0,0,55.36,33.11Z"/><path class="a" d="M66.81,40.83a5.45,5.45,0,0,0,1.7-.27V42.3a4,4,0,0,1-1,.31,6.52,6.52,0,0,1-1.27.12q-3.31,0-3.32-3.51V33.28H61.42v-1L63,31.39l.79-2.32h1.44v2.44H68.4v1.77H65.27v5.89a1.69,1.69,0,0,0,.43,1.25A1.53,1.53,0,0,0,66.81,40.83Z"/><path class="b" d="M17.75,59.24H16V54.37H11v4.87H9.22V48.44H11v4.41h5V48.44h1.77Z"/><path class="b" d="M26.17,59.24l-.23-1.08h-.1a2.46,2.46,0,0,1-1,.9,3.38,3.38,0,0,1-1.53.34c-2,0-2.94-1-2.94-3V51.06h1.75v5c0,1.25.53,1.88,1.59,1.88a1.9,1.9,0,0,0,1.6-.66,3.64,3.64,0,0,0,.51-2.19V51.06h1.74v8.18Z"/><path class="b" d="M37.2,59.24H35.46v-5a2.22,2.22,0,0,0-.38-1.41,1.51,1.51,0,0,0-1.2-.46,1.94,1.94,0,0,0-1.62.65,3.59,3.59,0,0,0-.5,2.18v4.07H30V51.06h1.38l.23,1.08h.1a2.36,2.36,0,0,1,1-.9,3.57,3.57,0,0,1,1.5-.32c2,0,3,1,3,3Z"/><path class="b" d="M42.67,58a3.87,3.87,0,0,0,1.26-.21v1.3a3.15,3.15,0,0,1-.73.23,4.83,4.83,0,0,1-.94.09c-1.65,0-2.47-.87-2.47-2.61V52.37H38.67v-.75l1.2-.65.58-1.73h1.08v1.82h2.32v1.31H41.53v4.38a1.24,1.24,0,0,0,.31.93A1.14,1.14,0,0,0,42.67,58Z"/><path class="b" d="M49.13,59.4a4.77,4.77,0,0,1-1.7-.29,3.46,3.46,0,0,1-1.27-.83,3.65,3.65,0,0,1-.8-1.32,5.33,5.33,0,0,1-.27-1.76,5.8,5.8,0,0,1,.25-1.78,3.81,3.81,0,0,1,.73-1.35,3.24,3.24,0,0,1,1.18-.86,4.14,4.14,0,0,1,1.57-.29,3.38,3.38,0,0,1,2.56,1,3.77,3.77,0,0,1,.93,2.7v.94H46.87a2.65,2.65,0,0,0,.64,1.82,2.21,2.21,0,0,0,1.7.64,6.47,6.47,0,0,0,1.36-.13,7,7,0,0,0,1.33-.45v1.41a5.6,5.6,0,0,1-1.27.43A7.36,7.36,0,0,1,49.13,59.4Zm-.31-7.15a1.76,1.76,0,0,0-1.33.52,2.43,2.43,0,0,0-.59,1.53h3.71a2.35,2.35,0,0,0-.48-1.53A1.65,1.65,0,0,0,48.82,52.25Z"/><path class="b" d="M58.43,50.92a4.7,4.7,0,0,1,.86.06l-.16,1.63a3.39,3.39,0,0,0-.78-.09,2.47,2.47,0,0,0-1,.18,2.21,2.21,0,0,0-.73.5,2.24,2.24,0,0,0-.48.77A3,3,0,0,0,56,55v4.27H54.27V51.06h1.38l.22,1.44H56A3.18,3.18,0,0,1,57,51.35,2.46,2.46,0,0,1,58.43,50.92Z"/><path class="a" d="M50.55,10.43l-8.85-2A.79.79,0,0,0,40.62,9q-1.21,2.74-2.4,5.5a.66.66,0,0,1-.6.48l-6.1.74c-.13,0-.31,0-.37.13s.11.21.21.28l9.24,6.8a.54.54,0,0,0,.64.06c1.22-.6,2.44-1.18,3.67-1.75.27-.13.32-.26.22-.54-.39-1.16-.77-2.33-1.13-3.5a.67.67,0,0,0-.47-.47c-1.35-.52-2.69-1.07-4.05-1.58-.38-.14-.38-.3-.24-.62.68-1.52,1.36-3,2-4.59a.65.65,0,0,1,.89-.43L44,9.93l5.67,1.27c.54.12.59.24.39.75-.06.14-.19.3-.08.45a6.26,6.26,0,0,1,.46,1l.12-.18.64-1.47C51.53,11,51.36,10.61,50.55,10.43ZM39.32,17.82l3.11,1.69a3.88,3.88,0,0,1-1.09.59l-1.49.72c-.13.06-.27.16-.43,0l-3.53-2.59,0-.12L39,17.78A.63.63,0,0,1,39.32,17.82Z"/><path class="a" d="M52.28,20.59c-.8-2.51-1.61-5-2.43-7.54a.84.84,0,0,0-1.16-.58c-1.45.47-2.9.93-4.35,1.41A.84.84,0,0,0,43.75,15c.14.49.31,1,.47,1.48q1,3,2,6.06a.84.84,0,0,0,1.16.63l4.4-1.43a.81.81,0,0,0,.6-.87A1.8,1.8,0,0,0,52.28,20.59ZM49.7,22l-.62.2a.25.25,0,0,1-.36-.19c0-.16,0-.33.14-.4a4.48,4.48,0,0,1,.71-.22c.25-.05.3.16.36.34A.3.3,0,0,1,49.7,22ZM51,20.49l-3.83,1.24c-.33.11-.41-.09-.49-.33-.6-1.89-1.21-3.77-1.81-5.67-.36-1.11-.35-1.11.79-1.48l2.7-.88.43-.13c.31,0,.3.21.36.37.57,1.74,1.13,3.47,1.69,5.21.13.4.24.82.39,1.21S51.22,20.41,51,20.49Z"/><path class="b" d="M27.39,10.87c-.62,0-.62,0-.59-.57a7.37,7.37,0,0,1,7-6.76c.28,0,.34.06.33.33,0,.79,0,.79-.74.89a6.13,6.13,0,0,0-5.4,5.8C27.94,11.1,27.56,10.77,27.39,10.87Z"/><path class="b" d="M30.92,16.34l5.87,4.3c1.26.92,2.52,1.84,3.76,2.77a.51.51,0,0,0,.64.06c1.28-.62,2.58-1.23,3.87-1.84.1,0,.24-.26.37,0s0,.3-.2.37c-1.38.65-2.77,1.3-4.13,2-.28.14-.42,0-.59-.14L33,18.31c-.62-.46-1.24-.92-1.87-1.37A.44.44,0,0,1,30.92,16.34Z"/><path class="b" d="M35.6,21a10.21,10.21,0,0,1-8.29-2.06c-.25-.21-.39-.23-.62,0-.5.53-1,1-1.56,1.55-.2.2-.18.31,0,.48.39.39.38.4,0,.8Q22,24.92,18.84,28.08c-.18.19-.29.22-.48,0-.67-.7-1.37-1.39-2.08-2.07-.15-.16-.16-.24,0-.4,2.19-2.18,4.37-4.35,6.54-6.55.22-.22.3-.1.45.05.39.39.39.39.77,0s1-1,1.49-1.47a.34.34,0,0,0,0-.45A10.59,10.59,0,1,1,42.15,4a9.51,9.51,0,0,1,1.92,4L42.4,7.67a1.36,1.36,0,0,1-.94-.81c-1.22-2.74-3.28-4.14-6.39-4.67A8.49,8.49,0,0,0,32.48,19l.45.08Z"/></svg>