<?xml version="1.0" encoding="utf-8"?>
<!-- Generator: Adobe Illustrator 26.0.1, SVG Export Plug-In . SVG Version: 6.00 Build 0)  -->
<svg version="1.1" id="Layer_1" xmlns="http://www.w3.org/2000/svg" xmlns:xlink="http://www.w3.org/1999/xlink" x="0px" y="0px"
	 viewBox="0 0 71.7 62.2" style="enable-background:new 0 0 71.7 62.2;" xml:space="preserve">
<style type="text/css">
	.st0{fill:#00AEEF;}
	.st1{fill:#3E4244;}
</style>
<path class="st0" d="M8.3,36h5.3v7.3c-1.7,0.5-3.4,0.8-5.1,0.8c-1.9,0.1-3.8-0.6-5.1-2c-1.3-1.6-1.9-3.5-1.8-5.5
	c0-1.1,0.2-2.1,0.5-3.1c0.3-0.9,0.8-1.7,1.5-2.4C4.3,30.5,5.1,30,6,29.7c1-0.4,2.1-0.5,3.2-0.5c1.5,0,3,0.3,4.3,0.9l-0.8,2
	c-1.1-0.5-2.3-0.8-3.5-0.8c-0.7,0-1.4,0.1-2.1,0.4c-0.6,0.2-1.1,0.6-1.6,1.1c-0.5,0.5-0.8,1.1-1,1.7c-0.2,0.7-0.4,1.5-0.3,2.3
	c-0.1,1.5,0.3,2.9,1.2,4c0.9,1,2.2,1.5,3.5,1.4c0.4,0,0.8,0,1.2-0.1c0.4-0.1,0.9-0.1,1.3-0.2V38h-3L8.3,36z"/>
<path class="st0" d="M32.3,44.1c-1.2,0.1-2.4-0.5-3.2-1.5c-0.8-1.2-1.2-2.7-1.1-4.2c-0.1-1.5,0.3-3,1.2-4.2c0.8-1,2-1.5,3.2-1.5
	c1.3-0.1,2.6,0.5,3.3,1.6h0.1c-0.1-0.4-0.1-0.8-0.1-1.1c0-0.3,0-0.6,0-0.8v-4H38v15.5h-1.9l-0.4-1.4h-0.1
	C34.9,43.6,33.6,44.2,32.3,44.1z M32.9,42.2c0.8,0.1,1.6-0.2,2.1-0.8c0.5-0.8,0.7-1.7,0.6-2.6v-0.3c0.1-1-0.1-2.1-0.7-3
	c-0.5-0.6-1.3-0.9-2.1-0.9c-0.8,0-1.5,0.3-1.9,1c-0.5,0.9-0.7,1.9-0.7,2.8c-0.1,1,0.2,2,0.6,2.8C31.4,41.9,32.1,42.3,32.9,42.2z"/>
<path class="st0" d="M50.6,32.9v1.3l-1.9,0.3c0.2,0.3,0.3,0.5,0.4,0.8c0.4,1.3,0,2.8-1,3.8c-0.9,0.7-2.1,1.1-3.2,1
	c-0.3,0-0.7,0-1-0.1c-0.4,0.2-0.7,0.6-0.8,1.1c0,0.2,0.1,0.4,0.3,0.5c0.4,0.2,0.9,0.2,1.3,0.2h1.9c1-0.1,2,0.2,2.8,0.8
	c0.7,0.6,1,1.4,1,2.2c0,1.2-0.5,2.3-1.5,2.9c-1.4,0.8-2.9,1.1-4.5,1C43.2,48.9,42,48.6,41,48c-0.8-0.5-1.2-1.4-1.2-2.3
	c0-0.6,0.2-1.2,0.6-1.7c0.5-0.5,1.1-0.9,1.8-1c-0.3-0.1-0.6-0.4-0.8-0.7c-0.5-0.6-0.5-1.4,0-2c0.3-0.3,0.6-0.6,1-0.8
	c-0.5-0.3-1-0.6-1.3-1.1c-0.9-1.5-0.6-3.5,0.6-4.7c0.9-0.7,2.1-1.1,3.2-1c0.3,0,0.7,0,1,0.1c0.3,0,0.6,0.1,0.8,0.1L50.6,32.9z
	 M41.9,45.6c0,0.5,0.3,0.9,0.7,1.2c0.6,0.3,1.2,0.4,1.9,0.4c1,0.1,2-0.1,2.9-0.5c0.6-0.3,0.9-0.8,0.9-1.5c0-0.4-0.2-0.8-0.5-1
	c-0.6-0.3-1.3-0.4-1.9-0.3h-1.8c-0.6,0-1.1,0.1-1.6,0.5C42.1,44.6,41.9,45.1,41.9,45.6z M42.9,36.5c-0.2,1,0.5,2,1.5,2.1
	c0.2,0,0.4,0,0.5,0c1.3,0,2-0.7,2-2.2c0-0.6-0.1-1.2-0.5-1.7c-0.4-0.4-1-0.6-1.5-0.6c-0.6,0-1.1,0.2-1.5,0.6
	C43,35.3,42.9,35.9,42.9,36.5z"/>
<path class="st0" d="M57.4,44.1c-0.8,0-1.6-0.1-2.3-0.4c-0.6-0.2-1.2-0.6-1.7-1.1c-0.5-0.5-0.8-1.1-1.1-1.8
	c-0.3-0.8-0.4-1.6-0.4-2.4c0-0.8,0.1-1.6,0.3-2.4c0.2-0.7,0.6-1.3,1-1.8c0.4-0.5,1-0.9,1.6-1.1c0.7-0.3,1.4-0.4,2.1-0.4
	c1.3-0.1,2.5,0.4,3.5,1.3c0.9,1,1.3,2.3,1.2,3.6v1.2h-7.3c0,0.9,0.3,1.8,0.8,2.5c0.6,0.6,1.4,0.9,2.3,0.9c0.6,0,1.2-0.1,1.8-0.2
	c0.6-0.1,1.2-0.3,1.8-0.6v1.9c-0.5,0.3-1.1,0.5-1.7,0.6C58.7,44.1,58.1,44.1,57.4,44.1z M57,34.5c-0.7,0-1.3,0.2-1.8,0.7
	c-0.5,0.6-0.8,1.3-0.8,2.1h5c0-0.7-0.2-1.5-0.6-2.1C58.3,34.7,57.6,34.4,57,34.5z"/>
<path class="st0" d="M68.4,42.2c0.6,0,1.2-0.1,1.7-0.3v1.7c-0.3,0.1-0.7,0.3-1,0.3c-0.4,0.1-0.8,0.1-1.3,0.1c-2.2,0-3.3-1.2-3.3-3.5
	v-5.9H63v-1l1.6-0.9l0.8-2.3h1.4v2.4H70v1.8h-3.1v5.9c0,0.5,0.1,0.9,0.4,1.2C67.6,42.1,68,42.2,68.4,42.2z"/>
<path class="st1" d="M19.3,60.6h-1.8v-4.9h-5v4.9h-1.8V49.8h1.8v4.4h5v-4.4h1.8L19.3,60.6z"/>
<path class="st1" d="M27.8,60.6l-0.2-1.1h-0.1c-0.2,0.4-0.6,0.7-1,0.9c-0.5,0.2-1,0.3-1.5,0.3c-2,0-2.9-1-2.9-3v-5.3h1.8v5
	c0,1.2,0.5,1.9,1.6,1.9c0.6,0,1.2-0.2,1.6-0.7c0.4-0.7,0.6-1.4,0.5-2.2v-4h1.7v8.2H27.8z"/>
<path class="st1" d="M38.8,60.6h-1.7v-5c0-0.5-0.1-1-0.4-1.4c-0.3-0.3-0.8-0.5-1.2-0.5c-0.6-0.1-1.2,0.2-1.6,0.7
	c-0.4,0.7-0.6,1.4-0.5,2.2v4.1h-1.8v-8.2H33l0.2,1.1h0.1c0.2-0.4,0.6-0.7,1-0.9c0.5-0.2,1-0.3,1.5-0.3c2,0,3,1,3,3L38.8,60.6z"/>
<path class="st1" d="M44.3,59.4c0.4,0,0.9-0.1,1.3-0.2v1.3c-0.2,0.1-0.5,0.2-0.7,0.2c-0.3,0.1-0.6,0.1-0.9,0.1
	c-1.7,0-2.5-0.9-2.5-2.6v-4.4h-1.1V53l1.2-0.7l0.6-1.7h1.1v1.8h2.3v1.3h-2.3v4.4c0,0.3,0.1,0.7,0.3,0.9C43.7,59.3,44,59.4,44.3,59.4
	z"/>
<path class="st1" d="M50.7,60.8c-0.6,0-1.2-0.1-1.7-0.3c-0.5-0.2-0.9-0.5-1.3-0.8c-0.4-0.4-0.6-0.8-0.8-1.3
	c-0.2-0.6-0.3-1.2-0.3-1.8c0-0.6,0.1-1.2,0.2-1.8c0.1-0.5,0.4-1,0.7-1.3c0.3-0.4,0.7-0.7,1.2-0.9c0.5-0.2,1-0.3,1.6-0.3
	c1,0,1.9,0.3,2.6,1c0.7,0.7,1,1.7,0.9,2.7v0.9h-5.4c0,0.7,0.2,1.3,0.6,1.8c0.4,0.4,1.1,0.7,1.7,0.6c0.5,0,0.9,0,1.4-0.1
	c0.5-0.1,0.9-0.3,1.3-0.5v1.4c-0.4,0.2-0.8,0.3-1.3,0.4C51.7,60.8,51.2,60.8,50.7,60.8z M50.4,53.6c-0.5,0-1,0.2-1.3,0.5
	c-0.4,0.4-0.6,1-0.6,1.5h3.7c0-0.6-0.1-1.1-0.5-1.5C51.4,53.8,50.9,53.6,50.4,53.6z"/>
<path class="st1" d="M60,52.3c0.3,0,0.6,0,0.9,0.1L60.7,54c-0.3-0.1-0.5-0.1-0.8-0.1c-0.3,0-0.7,0.1-1,0.2c-0.3,0.1-0.5,0.3-0.7,0.5
	c-0.2,0.2-0.4,0.5-0.5,0.8c-0.1,0.3-0.2,0.7-0.1,1v4.3h-1.7v-8.2h1.4l0.2,1.4h0.1c0.2-0.5,0.6-0.9,1-1.2C59,52.4,59.5,52.3,60,52.3z
	"/>
<path class="st0" d="M52.1,11.8l-8.9-2c-0.4-0.2-0.9,0-1,0.4c0,0,0,0.1,0,0.1c-0.8,1.8-1.6,3.7-2.4,5.5c-0.1,0.3-0.3,0.5-0.6,0.5
	l-6.1,0.7c-0.1,0-0.3,0-0.4,0.1c-0.1,0.1,0.1,0.2,0.2,0.3l9.2,6.8c0.2,0.2,0.4,0.2,0.6,0.1c1.2-0.6,2.4-1.2,3.7-1.8
	c0.3-0.1,0.3-0.3,0.2-0.5c-0.4-1.2-0.8-2.3-1.1-3.5c-0.1-0.2-0.2-0.4-0.5-0.5c-1.3-0.5-2.7-1.1-4-1.6c-0.4-0.1-0.4-0.3-0.2-0.6
	c0.7-1.5,1.4-3,2-4.6c0.1-0.3,0.4-0.6,0.8-0.5c0,0,0.1,0,0.1,0l1.9,0.4l5.7,1.3c0.5,0.1,0.6,0.2,0.4,0.8c-0.1,0.1-0.2,0.3-0.1,0.4
	c0.2,0.3,0.3,0.7,0.5,1l0.1-0.2l0.6-1.5C53.1,12.4,53,12,52.1,11.8z M40.9,19.2l3.1,1.7c-0.3,0.3-0.7,0.5-1.1,0.6l-1.5,0.7
	c-0.1,0.1-0.3,0.2-0.4,0l-3.5-2.6v-0.1l3.1-0.3C40.7,19.2,40.8,19.2,40.9,19.2z"/>
<path class="st0" d="M53.9,22c-0.8-2.5-1.6-5-2.4-7.5c-0.1-0.5-0.6-0.7-1-0.6c-0.1,0-0.1,0-0.2,0.1c-1.5,0.5-2.9,0.9-4.3,1.4
	c-0.5,0.1-0.7,0.6-0.6,1c0,0,0,0.1,0,0.1c0.1,0.5,0.3,1,0.5,1.5c0.7,2,1.3,4,2,6.1c0.1,0.5,0.5,0.8,1,0.7c0.1,0,0.1,0,0.2-0.1
	l4.4-1.4c0.4-0.1,0.6-0.5,0.6-0.9C54,22.2,53.9,22.1,53.9,22z M51.3,23.4l-0.6,0.2c-0.1,0.1-0.3,0-0.3-0.1c0,0,0-0.1,0-0.1
	c0-0.2,0-0.3,0.1-0.4c0.2-0.1,0.5-0.2,0.7-0.2c0.2,0,0.3,0.2,0.4,0.3C51.5,23.2,51.4,23.4,51.3,23.4z M52.6,21.9l-3.8,1.2
	c-0.3,0.1-0.4-0.1-0.5-0.3c-0.6-1.9-1.2-3.8-1.8-5.7c-0.4-1.1-0.3-1.1,0.8-1.5l2.7-0.9l0.4-0.1c0.3,0,0.3,0.2,0.4,0.4
	c0.6,1.7,1.1,3.5,1.7,5.2c0.1,0.4,0.2,0.8,0.4,1.2S52.8,21.8,52.6,21.9z"/>
<path class="st1" d="M29,12.3c-0.6,0-0.6,0-0.6-0.6c0.3-3.7,3.3-6.6,7-6.8c0.3,0,0.3,0.1,0.3,0.3c0,0.8,0,0.8-0.7,0.9
	c-3,0.4-5.3,2.8-5.4,5.8C29.5,12.5,29.2,12.2,29,12.3z"/>
<path class="st1" d="M32.5,17.7l5.9,4.3c1.3,0.9,2.5,1.8,3.8,2.8c0.2,0.2,0.4,0.2,0.6,0.1c1.3-0.6,2.6-1.2,3.9-1.8
	c0.1,0,0.2-0.3,0.4,0s0,0.3-0.2,0.4c-1.4,0.6-2.8,1.3-4.1,2c-0.3,0.1-0.4,0-0.6-0.1l-7.5-5.6c-0.6-0.5-1.2-0.9-1.9-1.4
	C32.5,18.2,32.4,18,32.5,17.7C32.5,17.7,32.5,17.7,32.5,17.7z"/>
<path class="st1" d="M37.2,22.4c-2.9,0.6-6-0.2-8.3-2.1c-0.2-0.2-0.4-0.2-0.6,0c-0.5,0.5-1,1-1.6,1.5c-0.2,0.2-0.2,0.3,0,0.5
	c0.4,0.4,0.4,0.4,0,0.8c-2.1,2.1-4.2,4.2-6.3,6.3c-0.2,0.2-0.3,0.2-0.5,0c-0.7-0.7-1.4-1.4-2.1-2.1c-0.1-0.2-0.2-0.2,0-0.4
	c2.2-2.2,4.4-4.4,6.5-6.5c0.2-0.2,0.3-0.1,0.5,0c0.4,0.4,0.4,0.4,0.8,0s1-1,1.5-1.5c0.1-0.1,0.1-0.3,0-0.5
	C23.5,14,24.3,7.3,28.8,3.7s11.3-2.9,14.9,1.7l0,0c0.9,1.2,1.6,2.5,1.9,4L44,9.1c-0.4-0.1-0.8-0.4-0.9-0.8c-1.2-2.7-3.3-4.1-6.4-4.7
	C32,2.9,27.7,6,27,10.7s2.5,9,7.1,9.7l0,0l0.5,0.1L37.2,22.4z"/>
<g>
	<path class="st0" d="M23.3,43.9l-0.2-1.4h-0.1c-0.6,0.9-1.8,1.6-3.3,1.6c-2.2,0-3.3-1.6-3.3-3.1c0-2.6,2.4-4.1,6.6-4.1v-0.2
		c0-0.9-0.2-2.5-2.5-2.5c-1,0-2.1,0.3-2.9,0.8l-0.5-1.3c0.9-0.6,2.2-1,3.6-1c3.3,0,4.2,2.3,4.2,4.5v4.1c0,1,0,1.9,0.2,2.6H23.3z
		 M23,38.3c-2.2,0-4.6,0.3-4.6,2.5c0,1.3,0.9,1.9,1.9,1.9c1.4,0,2.3-0.9,2.6-1.8c0.1-0.2,0.1-0.4,0.1-0.6V38.3z"/>
</g>
</svg>
