<svg xmlns="http://www.w3.org/2000/svg" viewBox="0 0 135.03 20.52"><defs><style>.a{fill:#00aeef;}.b{fill:#3e4244;}</style></defs><path class="a" d="M34.23,8.32h4v5.43a13.37,13.37,0,0,1-1.87.46,13.11,13.11,0,0,1-1.94.14,4.89,4.89,0,0,1-3.8-1.45,5.9,5.9,0,0,1-1.32-4.12,6.49,6.49,0,0,1,.38-2.32,4.77,4.77,0,0,1,1.13-1.75,4.87,4.87,0,0,1,1.77-1.1,6.85,6.85,0,0,1,2.35-.38,8.19,8.19,0,0,1,3.21.65L37.5,5.35a6.36,6.36,0,0,0-2.63-.6A4.05,4.05,0,0,0,33.31,5a3.19,3.19,0,0,0-1.18.81,3.55,3.55,0,0,0-.74,1.27,4.94,4.94,0,0,0-.26,1.68,4.43,4.43,0,0,0,.9,3,3.3,3.3,0,0,0,2.61,1c.29,0,.59,0,.89-.05s.61-.1.94-.17V9.84H34.23Z"/><path class="a" d="M44.19,14.35a4.73,4.73,0,0,1-1.7-.29,3.38,3.38,0,0,1-1.28-.83,3.63,3.63,0,0,1-.79-1.32,5,5,0,0,1-.28-1.75,5.82,5.82,0,0,1,.25-1.79A3.83,3.83,0,0,1,41.13,7a3.06,3.06,0,0,1,1.18-.85,3.88,3.88,0,0,1,1.56-.3,3.37,3.37,0,0,1,2.56,1,3.8,3.8,0,0,1,.94,2.71v.93H41.93a2.69,2.69,0,0,0,.63,1.83,2.25,2.25,0,0,0,1.71.64,6.43,6.43,0,0,0,1.35-.14A7,7,0,0,0,47,12.37v1.41a5.6,5.6,0,0,1-1.27.43A7.26,7.26,0,0,1,44.19,14.35ZM43.87,7.2a1.8,1.8,0,0,0-1.33.52A2.44,2.44,0,0,0,42,9.26h3.7a2.3,2.3,0,0,0-.48-1.54A1.66,1.66,0,0,0,43.87,7.2Z"/><path class="a" d="M52.09,14.35a2.83,2.83,0,0,1-2.38-1.11,5,5,0,0,1-.86-3.11A5,5,0,0,1,49.72,7a2.89,2.89,0,0,1,2.41-1.11,2.82,2.82,0,0,1,2.45,1.19h.08a6.69,6.69,0,0,1-.09-.78c0-.23,0-.43,0-.61v-3h1.74v11.5H54.92l-.31-1.07h-.07A2.76,2.76,0,0,1,52.09,14.35Zm.46-1.41a1.9,1.9,0,0,0,1.58-.61,3.14,3.14,0,0,0,.48-1.95v-.24a3.73,3.73,0,0,0-.5-2.2,1.86,1.86,0,0,0-1.57-.64A1.6,1.6,0,0,0,51.13,8a3.78,3.78,0,0,0-.49,2.12,3.84,3.84,0,0,0,.47,2.1A1.62,1.62,0,0,0,52.55,12.94Z"/><path class="a" d="M65.66,6V7l-1.39.25a2.54,2.54,0,0,1,.31.64,2.36,2.36,0,0,1,.13.8,2.46,2.46,0,0,1-.87,2,3.66,3.66,0,0,1-2.4.73,3.25,3.25,0,0,1-.71-.07,1,1,0,0,0-.57.82.47.47,0,0,0,.26.42,2.34,2.34,0,0,0,1,.14h1.42a3.13,3.13,0,0,1,2,.58,2,2,0,0,1,.71,1.66,2.44,2.44,0,0,1-1.13,2.15,6,6,0,0,1-3.32.75,4.51,4.51,0,0,1-2.55-.6,1.89,1.89,0,0,1-.88-1.68,1.78,1.78,0,0,1,.48-1.27,2.48,2.48,0,0,1,1.32-.71,1.32,1.32,0,0,1-.57-.48,1.23,1.23,0,0,1-.22-.69,1.19,1.19,0,0,1,.26-.77,2.73,2.73,0,0,1,.77-.63,2.28,2.28,0,0,1-1-.9,2.62,2.62,0,0,1-.39-1.43,2.6,2.6,0,0,1,.83-2.07,3.54,3.54,0,0,1,2.39-.73,5.81,5.81,0,0,1,.72,0,4,4,0,0,1,.58.1Zm-6.42,9.44a1,1,0,0,0,.51.87,2.78,2.78,0,0,0,1.42.3,4.21,4.21,0,0,0,2.13-.42A1.2,1.2,0,0,0,64,15.14a.79.79,0,0,0-.38-.75,3.09,3.09,0,0,0-1.42-.23H60.85a1.81,1.81,0,0,0-1.17.35A1.14,1.14,0,0,0,59.24,15.46ZM60,8.67a1.38,1.38,0,0,0,1.54,1.58q1.5,0,1.5-1.59a1.87,1.87,0,0,0-.37-1.25A1.41,1.41,0,0,0,61.52,7a1.46,1.46,0,0,0-1.15.43A1.83,1.83,0,0,0,60,8.67Z"/><path class="a" d="M70.74,14.35a4.73,4.73,0,0,1-1.7-.29,3.38,3.38,0,0,1-1.28-.83A3.63,3.63,0,0,1,67,11.91a5,5,0,0,1-.28-1.75,5.82,5.82,0,0,1,.25-1.79A3.83,3.83,0,0,1,67.68,7a3.06,3.06,0,0,1,1.18-.85,3.88,3.88,0,0,1,1.56-.3,3.37,3.37,0,0,1,2.56,1,3.8,3.8,0,0,1,.94,2.71v.93H68.48a2.69,2.69,0,0,0,.63,1.83,2.25,2.25,0,0,0,1.71.64,6.43,6.43,0,0,0,1.35-.14,7,7,0,0,0,1.33-.45v1.41a5.6,5.6,0,0,1-1.27.43A7.26,7.26,0,0,1,70.74,14.35ZM70.42,7.2a1.8,1.8,0,0,0-1.33.52,2.38,2.38,0,0,0-.58,1.54h3.7a2.3,2.3,0,0,0-.48-1.54A1.66,1.66,0,0,0,70.42,7.2Z"/><path class="a" d="M78.93,12.94a4.15,4.15,0,0,0,1.26-.2V14a2.73,2.73,0,0,1-.73.23,4.83,4.83,0,0,1-.94.09c-1.65,0-2.47-.87-2.47-2.61V7.33H74.93V6.57l1.2-.65.58-1.72h1.08V6h2.32V7.33H77.79v4.38a1.18,1.18,0,0,0,.32.92A1.1,1.1,0,0,0,78.93,12.94Z"/><path class="b" d="M93.49,14.19H91.72V9.32h-5v4.87H85V3.39h1.78V7.8h5V3.39h1.77Z"/><path class="b" d="M101.92,14.19l-.24-1.07h-.1a2.56,2.56,0,0,1-1,.9,3.45,3.45,0,0,1-1.54.33c-2,0-2.94-1-2.94-3V6h1.76v5c0,1.25.52,1.88,1.58,1.88a1.93,1.93,0,0,0,1.6-.65,3.64,3.64,0,0,0,.52-2.2V6h1.74v8.17Z"/><path class="b" d="M112.94,14.19H111.2v-5a2.22,2.22,0,0,0-.38-1.41,1.49,1.49,0,0,0-1.2-.45,1.94,1.94,0,0,0-1.62.64,3.7,3.7,0,0,0-.5,2.19v4.06h-1.76V6h1.38l.24,1.07h.09a2.36,2.36,0,0,1,1-.9A3.58,3.58,0,0,1,110,5.87c2,0,2.94,1,2.94,3Z"/><path class="b" d="M118.41,12.94a4.15,4.15,0,0,0,1.26-.2V14a2.73,2.73,0,0,1-.73.23,4.83,4.83,0,0,1-.94.09c-1.65,0-2.47-.87-2.47-2.61V7.33h-1.12V6.57l1.2-.65.58-1.72h1.08V6h2.32V7.33h-2.32v4.38a1.18,1.18,0,0,0,.32.92A1.1,1.1,0,0,0,118.41,12.94Z"/><path class="b" d="M124.88,14.35a4.73,4.73,0,0,1-1.7-.29,3.38,3.38,0,0,1-1.28-.83,3.8,3.8,0,0,1-.8-1.32,5.27,5.27,0,0,1-.27-1.75,5.82,5.82,0,0,1,.25-1.79A3.67,3.67,0,0,1,121.82,7,3.1,3.1,0,0,1,123,6.17a4,4,0,0,1,1.57-.3,3.37,3.37,0,0,1,2.56,1,3.79,3.79,0,0,1,.93,2.71v.93h-5.44a2.75,2.75,0,0,0,.64,1.83A2.25,2.25,0,0,0,125,13a6.45,6.45,0,0,0,1.36-.14,7,7,0,0,0,1.33-.45v1.41a5.6,5.6,0,0,1-1.27.43A7.33,7.33,0,0,1,124.88,14.35Zm-.32-7.15a1.8,1.8,0,0,0-1.33.52,2.38,2.38,0,0,0-.58,1.54h3.7a2.3,2.3,0,0,0-.48-1.54A1.66,1.66,0,0,0,124.56,7.2Z"/><path class="b" d="M134.17,5.87a3.83,3.83,0,0,1,.86.07l-.16,1.62a3.33,3.33,0,0,0-.78-.09,2.39,2.39,0,0,0-.94.18,2.25,2.25,0,0,0-.74.5,2.08,2.08,0,0,0-.47.77,3,3,0,0,0-.17,1v4.27H130V6h1.38l.22,1.43h.1a3.18,3.18,0,0,1,1.06-1.15A2.53,2.53,0,0,1,134.17,5.87Z"/><path class="a" d="M25,7.58,18.56,6.13a.58.58,0,0,0-.79.41c-.58,1.33-1.17,2.66-1.74,4a.49.49,0,0,1-.44.35c-1.48.17-2.95.36-4.43.54-.09,0-.23,0-.27.1s.08.14.15.2l6.72,4.94a.41.41,0,0,0,.47,0c.88-.43,1.77-.86,2.66-1.27.2-.09.23-.19.16-.39-.28-.85-.56-1.7-.82-2.55a.52.52,0,0,0-.34-.34c-1-.38-2-.78-2.94-1.15-.28-.1-.28-.21-.18-.45.49-1.1,1-2.21,1.45-3.33a.47.47,0,0,1,.64-.32l1.37.32,4.12.92c.39.09.43.18.28.55,0,.1-.14.21-.05.32a5.94,5.94,0,0,1,.33.71L25,9.59c.15-.36.31-.71.46-1.07C25.7,8,25.58,7.71,25,7.58ZM16.83,13l2.26,1.23a3.23,3.23,0,0,1-.79.43l-1.08.52c-.1,0-.2.12-.32,0l-2.56-1.88,0-.09,2.24-.27A.43.43,0,0,1,16.83,13Z"/><path class="a" d="M26.25,15c-.59-1.83-1.17-3.66-1.77-5.49a.6.6,0,0,0-.84-.41c-1.06.33-2.11.67-3.16,1a.61.61,0,0,0-.44.83c.11.36.23.72.35,1.08.47,1.47.94,2.94,1.42,4.4a.61.61,0,0,0,.85.46l3.2-1a.58.58,0,0,0,.43-.63A1.31,1.31,0,0,0,26.25,15Zm-1.88,1-.45.15a.19.19,0,0,1-.26-.14c0-.12,0-.24.1-.29a4.48,4.48,0,0,1,.52-.16c.18,0,.21.12.26.24A.22.22,0,0,1,24.37,16Zm.94-1.09c-.93.3-1.86.59-2.78.9-.24.08-.3-.06-.36-.24l-1.32-4.12c-.25-.81-.25-.81.58-1.07l2-.64.32-.09c.22,0,.21.14.25.26.42,1.26.82,2.53,1.23,3.79.1.29.18.59.29.88S25.48,14.84,25.31,14.89Z"/><path class="b" d="M8.15,7.9c-.45,0-.45,0-.42-.42A5.36,5.36,0,0,1,12.8,2.57c.2,0,.25.05.24.25,0,.56,0,.57-.54.64A4.45,4.45,0,0,0,8.58,7.67C8.56,8.07,8.28,7.83,8.15,7.9Z"/><path class="b" d="M10.73,11.87,15,15c.91.67,1.83,1.34,2.73,2a.39.39,0,0,0,.46,0c.94-.46,1.88-.9,2.82-1.34.07,0,.18-.19.27,0s0,.21-.15.27c-1,.47-2,.94-3,1.43-.2.1-.3,0-.42-.1l-5.48-4-1.36-1A.31.31,0,0,1,10.73,11.87Z"/><path class="b" d="M14.13,15.26a7.43,7.43,0,0,1-6-1.5c-.18-.15-.28-.17-.45,0-.36.39-.74.76-1.13,1.13-.15.14-.13.22,0,.35.29.28.28.29,0,.58Q4.23,18.12,2,20.41c-.13.14-.21.16-.35,0-.49-.51-1-1-1.51-1.51-.11-.11-.12-.17,0-.29C1.68,17,3.26,15.46,4.84,13.86c.16-.16.22-.07.33,0,.28.28.28.28.56,0s.71-.72,1.08-1.07a.25.25,0,0,0,0-.33A7.7,7.7,0,1,1,18.89,2.93a6.93,6.93,0,0,1,1.39,2.92l-1.21-.27A1,1,0,0,1,18.38,5a5.63,5.63,0,0,0-4.64-3.4,6.17,6.17,0,0,0-1.88,12.2l.32.05Z"/></svg>