<?xml version="1.0" encoding="utf-8"?>
<!-- Generator: Adobe Illustrator 26.0.1, SVG Export Plug-In . SVG Version: 6.00 Build 0)  -->
<svg version="1.1" id="Layer_1" xmlns="http://www.w3.org/2000/svg" xmlns:xlink="http://www.w3.org/1999/xlink" x="0px" y="0px"
	 viewBox="0 0 137 22" style="enable-background:new 0 0 137 22;" xml:space="preserve">
<style type="text/css">
	.st0{fill:#00AEEF;}
	.st1{fill:#3E4244;}
</style>
<path class="st0" d="M36.2,9.2h4v5.4c-0.6,0.2-1.2,0.4-1.9,0.5c-0.6,0.1-1.3,0.1-1.9,0.1c-1.4,0.1-2.8-0.4-3.8-1.4
	c-0.9-1.2-1.4-2.6-1.3-4.1c0-0.8,0.1-1.6,0.4-2.3c0.2-0.7,0.6-1.3,1.1-1.8c0.5-0.5,1.1-0.9,1.8-1.1c0.8-0.3,1.6-0.4,2.3-0.4
	c1.1,0,2.2,0.2,3.2,0.7l-0.6,1.5c-0.8-0.4-1.7-0.6-2.6-0.6c-0.5,0-1.1,0.1-1.6,0.2c-0.4,0.2-0.9,0.5-1.2,0.8
	c-0.3,0.4-0.6,0.8-0.7,1.3c-0.2,0.5-0.3,1.1-0.3,1.7c-0.1,1.1,0.2,2.1,0.9,3c0.7,0.7,1.6,1.1,2.6,1c0.3,0,0.6,0,0.9-0.1
	s0.6-0.1,0.9-0.2v-2.7h-2.2V9.2z"/>
<path class="st0" d="M53.1,15.3c-0.9,0-1.8-0.4-2.4-1.1c-0.6-0.9-0.9-2-0.9-3.1c-0.1-1.1,0.2-2.2,0.9-3.1c0.6-0.7,1.5-1.2,2.4-1.1
	c1-0.1,1.9,0.4,2.5,1.2h0.1c0-0.3-0.1-0.5-0.1-0.8c0-0.2,0-0.4,0-0.6v-3h1.7v11.5h-1.4L55.6,14h-0.1C55,14.9,54,15.3,53.1,15.3z
	 M53.5,13.9c0.6,0.1,1.2-0.2,1.6-0.6c0.4-0.6,0.5-1.3,0.5-1.9v-0.2c0.1-0.8-0.1-1.5-0.5-2.2c-0.4-0.5-1-0.7-1.6-0.6
	c-0.6,0-1.1,0.2-1.4,0.7c-0.4,0.6-0.5,1.4-0.5,2.1c0,0.7,0.1,1.5,0.5,2.1C52.4,13.6,52.9,13.9,53.5,13.9z"/>
<path class="st0" d="M66.6,6.9v1l-1.4,0.2c0.1,0.2,0.2,0.4,0.3,0.6c0.1,0.3,0.1,0.5,0.1,0.8c0,0.8-0.3,1.5-0.9,2
	c-0.7,0.5-1.5,0.8-2.4,0.7c-0.2,0-0.5,0-0.7-0.1c-0.3,0.2-0.5,0.5-0.6,0.8c0,0.2,0.1,0.3,0.3,0.4c0.3,0.1,0.7,0.2,1,0.1h1.4
	c0.7,0,1.4,0.2,2,0.6c0.5,0.4,0.8,1,0.7,1.7c0,0.9-0.4,1.7-1.1,2.2c-1,0.6-2.2,0.8-3.3,0.8c-0.9,0.1-1.8-0.2-2.5-0.6
	c-0.6-0.4-0.9-1-0.9-1.7c0-0.5,0.2-0.9,0.5-1.3c0.4-0.4,0.8-0.6,1.3-0.7c-0.2-0.1-0.4-0.3-0.6-0.5c-0.1-0.2-0.2-0.4-0.2-0.7
	c0-0.3,0.1-0.6,0.3-0.8c0.2-0.3,0.5-0.5,0.8-0.6c-0.4-0.2-0.8-0.5-1-0.9c-0.3-0.4-0.4-0.9-0.4-1.4c0-0.8,0.3-1.5,0.8-2.1
	c0.7-0.5,1.5-0.8,2.4-0.7c0.2,0,0.5,0,0.7,0c0.2,0,0.4,0.1,0.6,0.1L66.6,6.9z M60.2,16.4c0,0.4,0.2,0.7,0.5,0.9
	c0.4,0.2,0.9,0.3,1.4,0.3c0.7,0,1.5-0.1,2.1-0.4c0.4-0.2,0.7-0.6,0.7-1c0-0.3-0.1-0.6-0.4-0.8c-0.4-0.2-0.9-0.3-1.4-0.2h-1.4
	c-0.4,0-0.8,0.1-1.2,0.4C60.4,15.7,60.2,16,60.2,16.4L60.2,16.4z M61,9.6c-0.1,0.8,0.4,1.5,1.2,1.6c0.1,0,0.3,0,0.4,0
	c1,0,1.5-0.5,1.5-1.6c0-0.4-0.1-0.9-0.4-1.2c-0.3-0.3-0.7-0.5-1.2-0.4c-0.4,0-0.8,0.1-1.2,0.4C61.1,8.7,60.9,9.1,61,9.6z"/>
<path class="st0" d="M71.7,15.3c-0.6,0-1.2-0.1-1.7-0.3c-0.5-0.2-0.9-0.5-1.3-0.8c-0.3-0.4-0.6-0.8-0.8-1.3
	c-0.2-0.6-0.3-1.2-0.3-1.8c0-0.6,0.1-1.2,0.2-1.8c0.1-0.5,0.4-1,0.7-1.4c0.3-0.4,0.7-0.7,1.2-0.8c0.5-0.2,1-0.3,1.6-0.3
	c1,0,1.9,0.3,2.6,1c0.7,0.7,1,1.7,0.9,2.7v0.9h-5.4c0,0.7,0.2,1.3,0.6,1.8c0.5,0.4,1.1,0.7,1.7,0.6c0.5,0,0.9,0,1.3-0.1
	c0.5-0.1,0.9-0.3,1.3-0.4v1.4c-0.4,0.2-0.8,0.3-1.3,0.4C72.7,15.2,72.2,15.3,71.7,15.3z M71.4,8.1c-0.5,0-1,0.2-1.3,0.5
	c-0.4,0.4-0.6,1-0.6,1.5h3.7c0-0.6-0.1-1.1-0.5-1.5C72.4,8.3,71.9,8.1,71.4,8.1z"/>
<path class="st0" d="M79.9,13.9c0.4,0,0.9-0.1,1.3-0.2v1.3c-0.2,0.1-0.5,0.2-0.7,0.2c-0.3,0.1-0.6,0.1-0.9,0.1
	c-1.7,0-2.5-0.9-2.5-2.6V8.2h-1.1V7.5l1.2-0.7l0.6-1.7h1.1v1.8h2.3v1.3h-2.3v4.4c0,0.3,0.1,0.7,0.3,0.9
	C79.3,13.8,79.6,13.9,79.9,13.9z"/>
<path class="st1" d="M94.5,15.1h-1.8v-4.9h-5v4.9H86V4.3h1.8v4.4h5V4.3h1.8L94.5,15.1z"/>
<path class="st1" d="M102.9,15.1l-0.2-1.1h-0.1c-0.2,0.4-0.6,0.7-1,0.9c-0.5,0.2-1,0.3-1.5,0.3c-2,0-2.9-1-2.9-3V6.9h1.8v5
	c0,1.2,0.5,1.9,1.6,1.9c0.6,0,1.2-0.2,1.6-0.6c0.4-0.7,0.6-1.4,0.5-2.2v-4h1.7v8.2L102.9,15.1z"/>
<path class="st1" d="M113.9,15.1h-1.7v-5c0-0.5-0.1-1-0.4-1.4c-0.3-0.3-0.8-0.5-1.2-0.4c-0.6-0.1-1.2,0.2-1.6,0.6
	c-0.4,0.7-0.6,1.4-0.5,2.2v4.1h-1.8V6.9h1.4l0.2,1.1h0.1c0.2-0.4,0.6-0.7,1-0.9c0.5-0.2,1-0.3,1.6-0.3c2,0,2.9,1,2.9,3V15.1z"/>
<path class="st1" d="M119.4,13.9c0.4,0,0.9-0.1,1.3-0.2v1.3c-0.2,0.1-0.5,0.2-0.7,0.2c-0.3,0.1-0.6,0.1-0.9,0.1
	c-1.7,0-2.5-0.9-2.5-2.6V8.2h-1.1V7.5l1.2-0.7l0.6-1.7h1.1v1.8h2.3v1.3h-2.3v4.4c0,0.3,0.1,0.7,0.3,0.9
	C118.8,13.8,119.1,13.9,119.4,13.9z"/>
<path class="st1" d="M125.8,15.3c-0.6,0-1.2-0.1-1.7-0.3c-0.5-0.2-0.9-0.5-1.3-0.8c-0.4-0.4-0.6-0.8-0.8-1.3
	c-0.2-0.6-0.3-1.2-0.3-1.8c0-0.6,0.1-1.2,0.2-1.8c0.1-0.5,0.4-1,0.7-1.4c0.3-0.4,0.7-0.6,1.2-0.8c0.5-0.2,1-0.3,1.6-0.3
	c1,0,1.9,0.3,2.6,1c0.7,0.7,1,1.7,0.9,2.7v0.9h-5.4c0,0.7,0.2,1.3,0.6,1.8c0.5,0.5,1.1,0.7,1.7,0.7c0.5,0,0.9,0,1.4-0.1
	c0.5-0.1,0.9-0.3,1.3-0.4v1.4c-0.4,0.2-0.8,0.3-1.3,0.4C126.9,15.3,126.4,15.3,125.8,15.3z M125.5,8.1c-0.5,0-1,0.2-1.3,0.5
	c-0.4,0.4-0.6,1-0.6,1.5h3.7c0-0.6-0.1-1.1-0.5-1.5C126.5,8.3,126,8.1,125.5,8.1z"/>
<path class="st1" d="M135.1,6.8c0.3,0,0.6,0,0.9,0.1l-0.2,1.6c-0.3-0.1-0.5-0.1-0.8-0.1c-0.3,0-0.6,0.1-0.9,0.2
	c-0.3,0.1-0.5,0.3-0.7,0.5c-0.2,0.2-0.4,0.5-0.5,0.8c-0.1,0.3-0.2,0.7-0.2,1v4.3H131V6.9h1.4l0.2,1.4h0.1c0.3-0.5,0.6-0.9,1.1-1.2
	C134.1,6.9,134.6,6.8,135.1,6.8z"/>
<path class="st0" d="M26,8.5L19.5,7c-0.3-0.1-0.6,0-0.8,0.3c0,0,0,0.1,0,0.1c-0.6,1.3-1.2,2.7-1.7,4c-0.1,0.2-0.2,0.3-0.4,0.4
	c-1.5,0.2-2.9,0.4-4.4,0.5c-0.1,0-0.2,0-0.3,0.1s0.1,0.1,0.1,0.2l6.7,4.9c0.1,0.1,0.3,0.1,0.5,0c0.9-0.4,1.8-0.9,2.7-1.3
	c0.2-0.1,0.2-0.2,0.2-0.4c-0.3-0.9-0.6-1.7-0.8-2.6c-0.1-0.2-0.2-0.3-0.3-0.3c-1-0.4-2-0.8-2.9-1.1c-0.3-0.1-0.3-0.2-0.2-0.4
	c0.5-1.1,1-2.2,1.5-3.3c0.1-0.3,0.3-0.4,0.6-0.3c0,0,0,0,0.1,0l1.4,0.3L25.3,9c0.4,0.1,0.4,0.2,0.3,0.6c0,0.1-0.1,0.2,0,0.3
	c0.1,0.2,0.2,0.5,0.3,0.7l0.1-0.1c0.1-0.4,0.3-0.7,0.5-1.1C26.7,8.9,26.5,8.6,26,8.5z M17.8,13.9l2.3,1.2c-0.2,0.2-0.5,0.3-0.8,0.4
	l-1.1,0.5c-0.1,0-0.2,0.1-0.3,0l-2.6-1.9v-0.1l2.2-0.3C17.6,13.8,17.7,13.9,17.8,13.9z"/>
<path class="st0" d="M27.2,15.9c-0.6-1.8-1.2-3.7-1.8-5.5c-0.1-0.3-0.4-0.5-0.7-0.5c0,0-0.1,0-0.1,0c-1.1,0.3-2.1,0.7-3.2,1
	c-0.3,0.1-0.5,0.4-0.5,0.7c0,0,0,0.1,0,0.1c0.1,0.4,0.2,0.7,0.4,1.1c0.5,1.5,0.9,2.9,1.4,4.4c0.1,0.3,0.4,0.6,0.7,0.5
	c0.1,0,0.1,0,0.2,0l3.2-1c0.3-0.1,0.5-0.3,0.4-0.6C27.3,16.1,27.2,16,27.2,15.9z M25.3,16.9l-0.5,0.1c-0.1,0-0.2,0-0.2-0.1
	c0,0,0,0,0,0c0-0.1,0-0.2,0.1-0.3c0.2-0.1,0.3-0.1,0.5-0.2c0.2,0,0.2,0.1,0.3,0.2C25.5,16.8,25.4,16.9,25.3,16.9z M26.3,15.8
	c-0.9,0.3-1.9,0.6-2.8,0.9c-0.2,0.1-0.3-0.1-0.4-0.2l-1.3-4.1c-0.2-0.8-0.2-0.8,0.6-1.1l2-0.6l0.3-0.1c0.2,0,0.2,0.1,0.2,0.3
	c0.4,1.3,0.8,2.5,1.2,3.8c0.1,0.3,0.2,0.6,0.3,0.9S26.4,15.8,26.3,15.8L26.3,15.8z"/>
<path class="st1" d="M9.1,8.8c-0.4,0-0.4,0-0.4-0.4c0.2-2.7,2.4-4.8,5.1-4.9c0.2,0,0.2,0,0.2,0.2c0,0.6,0,0.6-0.5,0.6
	c-2.2,0.3-3.8,2-3.9,4.2C9.5,9,9.2,8.7,9.1,8.8z"/>
<path class="st1" d="M11.7,12.8l4.3,3.1c0.9,0.7,1.8,1.3,2.7,2c0.1,0.1,0.3,0.1,0.5,0c0.9-0.5,1.9-0.9,2.8-1.3c0.1,0,0.2-0.2,0.3,0
	c0.1,0.2,0,0.2-0.1,0.3c-1,0.5-2,0.9-3,1.4c-0.2,0.1-0.3,0-0.4-0.1l-5.5-4l-1.4-1C11.7,13.1,11.6,12.9,11.7,12.8z"/>
<path class="st1" d="M15.1,16.2c-2.1,0.4-4.3-0.2-6-1.5c-0.2-0.1-0.3-0.2-0.4,0c-0.4,0.4-0.7,0.8-1.1,1.1c-0.2,0.1-0.1,0.2,0,0.4
	c0.3,0.3,0.3,0.3,0,0.6C6,18.3,4.5,19.8,3,21.3c-0.1,0.1-0.2,0.2-0.4,0c-0.5-0.5-1-1-1.5-1.5c-0.1-0.1-0.1-0.2,0-0.3
	c1.5-1.6,3.1-3.1,4.7-4.8c0.2-0.2,0.2-0.1,0.3,0c0.3,0.3,0.3,0.3,0.6,0s0.7-0.7,1.1-1.1c0.1-0.1,0.1-0.2,0-0.3
	C5,10.1,5.4,5.3,8.6,2.5s8.1-2.4,10.9,0.8c0.1,0.2,0.3,0.3,0.4,0.5c0.7,0.9,1.2,1.9,1.4,2.9L20,6.5c-0.3-0.1-0.6-0.3-0.7-0.6
	c-0.8-1.9-2.6-3.2-4.6-3.4c-3.4-0.5-6.5,1.8-7,5.2s1.8,6.5,5.2,7l0.3,0.1L15.1,16.2z"/>
<g>
	<path class="st0" d="M46.7,15l-0.1-1h-0.1c-0.5,0.6-1.3,1.2-2.5,1.2c-1.7,0-2.5-1.2-2.5-2.4c0-2,1.8-3.1,5-3.1V9.6
		c0-0.7-0.2-1.9-1.9-1.9c-0.8,0-1.6,0.2-2.1,0.6l-0.3-1c0.7-0.4,1.7-0.7,2.7-0.7c2.5,0,3.1,1.7,3.1,3.4v3.1c0,0.7,0,1.4,0.1,2H46.7z
		 M46.5,10.8c-1.6,0-3.5,0.3-3.5,1.9c0,1,0.6,1.4,1.4,1.4c1.1,0,1.8-0.7,2-1.4c0.1-0.2,0.1-0.3,0.1-0.5V10.8z"/>
</g>
</svg>
